<svg width="20" height="20" viewBox="0 0 24 24" fill="none" xmlns="http://www.w3.org/2000/svg">
<path d="M19.0095 11.1376C19.0855 11.6846 19.5906 12.0665 20.1376 11.9904C20.6847 11.9144 21.0665 11.4093 20.9905 10.8623L19.0095 11.1376ZM3.5769 8.61539C3.36451 9.12521 3.60562 9.71067 4.11544 9.92306C4.62525 10.1354 5.21071 9.89433 5.4231 9.38452L3.5769 8.61539ZM5 4.99996C5 4.44767 4.55228 3.99996 4 3.99996C3.44772 3.99996 3 4.44767 3 4.99996H5ZM4 8.99996H3C3 9.55224 3.44772 9.99996 4 9.99996V8.99996ZM8 9.99996C8.55228 9.99996 9 9.55224 9 8.99996C9 8.44767 8.55228 7.99996 8 7.99996V9.99996ZM20.9905 10.8623C20.4257 6.79825 17.211 3.61481 13.1416 3.08973L12.8857 5.07329C16.0607 5.48297 18.5689 7.96674 19.0095 11.1376L20.9905 10.8623ZM13.1416 3.08973C9.07226 2.56465 5.15481 4.82781 3.5769 8.61539L5.4231 9.38452C6.65421 6.42937 9.71069 4.66361 12.8857 5.07329L13.1416 3.08973ZM3 4.99996V8.99996H5V4.99996H3ZM4 9.99996H8V7.99996H4V9.99996Z" fill="black"/>
<path d="M4.99048 12.8624C4.91446 12.3153 4.40938 11.9335 3.86235 12.0095C3.31532 12.0855 2.9335 12.5906 3.00952 13.1376L4.99048 12.8624ZM20.4231 15.3846C20.6355 14.8747 20.3944 14.2893 19.8846 14.0769C19.3747 13.8645 18.7893 14.1056 18.5769 14.6154L20.4231 15.3846ZM19 19C19 19.5523 19.4477 20 20 20C20.5523 20 21 19.5523 21 19H19ZM20 15H21C21 14.4477 20.5523 14 20 14V15ZM16 14C15.4477 14 15 14.4477 15 15C15 15.5523 15.4477 16 16 16V14ZM3.00952 13.1376C3.57431 17.2017 6.78897 20.3851 10.8584 20.9102L11.1143 18.9267C7.93929 18.517 5.43114 16.0332 4.99048 12.8624L3.00952 13.1376ZM10.8584 20.9102C14.9277 21.4353 18.8452 19.1721 20.4231 15.3846L18.5769 14.6154C17.3458 17.5706 14.2893 19.3363 11.1143 18.9267L10.8584 20.9102ZM21 19V15H19V19H21ZM20 14H16V16H20V14Z" fill="black"/>
</svg>
