<svg width="20" height="20" viewBox="0 0 20 20" fill="none" xmlns="http://www.w3.org/2000/svg">
<path d="M15.6762 9.3043C15.7522 9.85133 16.2573 10.2332 16.8044 10.1571C17.3514 10.0811 17.7332 9.57603 17.6572 9.029L15.6762 9.3043ZM2.82694 7.11542C2.61455 7.62524 2.85567 8.2107 3.36548 8.42308C3.87529 8.63547 4.46075 8.39436 4.67314 7.88455L2.82694 7.11542ZM4.33337 4.16665C4.33337 3.61437 3.88566 3.16665 3.33337 3.16665C2.78109 3.16665 2.33337 3.61437 2.33337 4.16665H4.33337ZM3.33337 7.49998H2.33337C2.33337 8.05227 2.78109 8.49998 3.33337 8.49998V7.49998ZM6.66671 8.49998C7.21899 8.49998 7.66671 8.05227 7.66671 7.49998C7.66671 6.9477 7.21899 6.49998 6.66671 6.49998V8.49998ZM17.6572 9.029C17.1762 5.56785 14.4384 2.85669 10.9727 2.4095L10.7168 4.39306C13.2881 4.72484 15.3194 6.73635 15.6762 9.3043L17.6572 9.029ZM10.9727 2.4095C7.50705 1.96232 4.17076 3.88973 2.82694 7.11542L4.67314 7.88455C5.67017 5.49129 8.14548 4.06127 10.7168 4.39306L10.9727 2.4095ZM2.33337 4.16665V7.49998H4.33337V4.16665H2.33337ZM3.33337 8.49998H6.66671V6.49998H3.33337V8.49998Z" fill="black"/>
<path d="M4.32386 10.6957C4.24783 10.1487 3.74275 9.76687 3.19573 9.84289C2.6487 9.91891 2.26687 10.424 2.34289 10.971L4.32386 10.6957ZM17.1731 12.8846C17.3855 12.3748 17.1444 11.7893 16.6346 11.5769C16.1248 11.3646 15.5393 11.6057 15.3269 12.1155L17.1731 12.8846ZM15.6667 15.8334C15.6667 16.3857 16.1144 16.8334 16.6667 16.8334C17.219 16.8334 17.6667 16.3857 17.6667 15.8334H15.6667ZM16.6667 12.5H17.6667C17.6667 11.9478 17.219 11.5 16.6667 11.5V12.5ZM13.3334 11.5C12.7811 11.5 12.3334 11.9478 12.3334 12.5C12.3334 13.0523 12.7811 13.5 13.3334 13.5V11.5ZM2.34289 10.971C2.82389 14.4322 5.56166 17.1433 9.02734 17.5905L9.28329 15.607C6.71197 15.2752 4.68073 13.2637 4.32386 10.6957L2.34289 10.971ZM9.02734 17.5905C12.493 18.0377 15.8293 16.1103 17.1731 12.8846L15.3269 12.1155C14.3299 14.5087 11.8546 15.9388 9.28329 15.607L9.02734 17.5905ZM17.6667 15.8334V12.5H15.6667V15.8334H17.6667ZM16.6667 11.5H13.3334V13.5H16.6667V11.5Z" fill="black"/>
<path d="M10 7.5V10" stroke="black" stroke-width="2" stroke-linecap="round" stroke-linejoin="round"/>
<path d="M10 12.5H10.0084" stroke="black" stroke-width="2" stroke-linecap="round" stroke-linejoin="round"/>
</svg>
