<svg width="24" height="24" viewBox="0 0 24 24" fill="none" xmlns="http://www.w3.org/2000/svg">
<path d="M16 8C16 8.55228 16.4477 9 17 9C17.5523 9 18 8.55228 18 8H16ZM18 12C18 12.5523 18.4477 13 19 13C19.5523 13 20 12.5523 20 12H18ZM20 16C20 15.4477 19.5523 15 19 15C18.4477 15 18 15.4477 18 16H20ZM5 6C5 5.44772 4.55228 5 4 5C3.44772 5 3 5.44772 3 6H5ZM18 8V5H16V8H18ZM18 5C18 3.89543 17.1046 3 16 3V5H18ZM16 3H6V5H16V3ZM6 3C4.34315 3 3 4.34315 3 6H5C5 5.44772 5.44772 5 6 5V3ZM3 6C3 7.65685 4.34315 9 6 9V7C5.44772 7 5 6.55228 5 6H3ZM6 9H18V7H6V9ZM18 9H20C20 7.89543 19.1046 7 18 7V9ZM18 9V12H20V9H18ZM18 16V19H20V16H18ZM18 19V21C19.1046 21 20 20.1046 20 19H18ZM18 19H6V21H18V19ZM6 19C5.44772 19 5 18.5523 5 18H3C3 19.6569 4.34315 21 6 21V19ZM5 18V6H3V18H5Z" fill="white"/>
<path d="M20 12V16H16C14.8954 16 14 15.1046 14 14C14 12.8954 14.8954 12 16 12H20" stroke="white" stroke-width="2" stroke-linecap="round" stroke-linejoin="round"/>
</svg>
